# xmcd
#
# Track frame offsets: 
#        150
#        20434
#        35474
#        53091
#        66734
#        82570
#        100507
#        117657
#        135329
#        156642
#        173229
#        189319
#        207887
#        224670
#        240744
#        257641
#        275584
#        293892
#        316700
#
# Disc length: 4439 seconds
#
# Revision: 0
# Processed by: cddbd v1.5.2PL0 Copyright (c) Steve Scherf et al.
# Submitted via: ExactAudioCopy v0.95b3
#
DISCID=14115513
DTITLE=Zucchero - Wanted [CD3 Best Of 05-18]
DYEAR=2017
DGENRE=Blues
TTITLE0=Un'Altra Storia
TTITLE1=Allora Canto
TTITLE2=Speng The Light
TTITLE3=Partigiano Reggiano
TTITLE4=13 Buone Ragioni
TTITLE5=Ci Si Arrende
TTITLE6=Voci (Namanama Version)
TTITLE7=Vedo Nero
TTITLE8=Chocabek
TTITLE9=Occhi
TTITLE10=E' Delicato
TTITLE11=Love Is All Around
TTITLE12=E' Un Peccato Morir
TTITLE13=Un Kilo
TTITLE14=Alla Fine
TTITLE15=Bacco Perbacco
TTITLE16=Amen
TTITLE17=Un Soffio Caldo
TTITLE18=Il Suono Della Domenica
EXTD=
EXTT0=
EXTT1=
EXTT2=
EXTT3=
EXTT4=
EXTT5=
EXTT6=
EXTT7=
EXTT8=
EXTT9=
EXTT10=
EXTT11=
EXTT12=
EXTT13=
EXTT14=
EXTT15=
EXTT16=
EXTT17=
EXTT18=
PLAYORDER=
